/* XPM */
static char *_fe968d524b1452081afa17251ce3886Du1DpHoosGxSyu9U[] = {
/* columns rows colors chars-per-pixel */
"60 60 234 2 ",
"   c #0E0508",
".  c #110906",
"X  c #140C0A",
"o  c #100708",
"O  c #17100A",
"+  c #150C11",
"@  c #180F13",
"#  c #1B1212",
"$  c #3A1D1A",
"%  c #35181D",
"&  c #2E1A1B",
"*  c #3C211B",
"=  c #391E27",
"-  c #3E1B31",
";  c #3D2424",
":  c #3B242B",
">  c #382628",
",  c #3D2837",
"<  c #3E3731",
"1  c #4C160A",
"2  c #57190A",
"3  c #510F13",
"4  c #491A17",
"5  c #521A1B",
"6  c #58181A",
"7  c #4C0E06",
"8  c #601913",
"9  c #43211C",
"0  c #4D221E",
"q  c #572719",
"w  c #6C2408",
"e  c #752805",
"r  c #632B18",
"t  c #713B1F",
"y  c #481C25",
"u  c #5A1B2C",
"i  c #531728",
"p  c #411732",
"a  c #551B33",
"s  c #442523",
"d  c #492421",
"f  c #432D2D",
"g  c #48292A",
"h  c #542C2B",
"j  c #592727",
"k  c #45322C",
"l  c #4A312D",
"z  c #443025",
"x  c #5B3329",
"c  c #4A2633",
"v  c #4E2A33",
"b  c #49253A",
"n  c #532633",
"m  c #5C2634",
"M  c #532B32",
"N  c #522C3B",
"B  c #582B37",
"V  c #443632",
"C  c #573D3C",
"Z  c #573437",
"A  c #622B27",
"S  c #623324",
"D  c #6B3128",
"F  c #783628",
"G  c #612835",
"H  c #743939",
"J  c #484137",
"K  c #4C453B",
"L  c #4D483E",
"P  c #47463B",
"I  c #54453D",
"U  c #514A3E",
"Y  c #5C473B",
"T  c #50553F",
"R  c #5E492A",
"E  c #664A27",
"W  c #78472A",
"Q  c #634734",
"!  c #774C37",
"~  c #6A553C",
"^  c #685538",
"/  c #785A38",
"(  c #492541",
")  c #4E4942",
"_  c #4C494A",
"`  c #534543",
"'  c #544D44",
"]  c #5A4D45",
"[  c #554D4A",
"{  c #5A4E4C",
"}  c #584545",
"|  c #4F534B",
" . c #4A5245",
".. c #565145",
"X. c #595146",
"o. c #5A5A47",
"O. c #565249",
"+. c #5B544B",
"@. c #5E594D",
"#. c #575A4B",
"$. c #534D51",
"%. c #5A4D53",
"&. c #565252",
"*. c #5C5452",
"=. c #5E5951",
"-. c #5C545A",
";. c #5E5B5B",
":. c #575D53",
">. c #624C46",
",. c #624F4D",
"<. c #6D4A4C",
"1. c #6C4A44",
"2. c #704949",
"3. c #655443",
"4. c #62554C",
"5. c #6A554C",
"6. c #60594F",
"7. c #6B5B4D",
"8. c #6D5243",
"9. c #73554A",
"0. c #725C49",
"q. c #785A46",
"w. c #644E54",
"e. c #625653",
"r. c #6B5653",
"t. c #635C53",
"y. c #6A5C53",
"u. c #63555C",
"i. c #645D5A",
"p. c #6A5E5A",
"a. c #685159",
"s. c #725C5C",
"d. c #755956",
"f. c #5E6057",
"g. c #67624E",
"h. c #666156",
"j. c #696157",
"k. c #656259",
"l. c #6B645A",
"z. c #6C655B",
"x. c #6E665A",
"c. c #6D665C",
"v. c #6E675D",
"b. c #6A635A",
"n. c #6F685E",
"m. c #6D695E",
"M. c #6C6954",
"N. c #72655E",
"B. c #716A5D",
"V. c #776758",
"C. c #7C634D",
"Z. c #695E62",
"A. c #655E61",
"S. c #6C6562",
"D. c #6C6A62",
"F. c #686A65",
"G. c #736562",
"H. c #716A61",
"J. c #736C62",
"K. c #746D63",
"L. c #756E64",
"P. c #736C63",
"I. c #796C64",
"U. c #7B6B6A",
"Y. c #716A6B",
"T. c #767166",
"R. c #797266",
"E. c #76726A",
"W. c #7A7369",
"Q. c #7B746B",
"!. c #7C7A6D",
"~. c #7D7864",
"^. c #7E7873",
"/. c #893B18",
"(. c #913B1A",
"). c #853E29",
"_. c #953D24",
"`. c #88421B",
"'. c #9E441C",
"]. c #8A4628",
"[. c #964929",
"{. c #88443C",
"}. c #944A36",
"|. c #88583B",
" X c #93705A",
".X c #A7725B",
"XX c #A76C5A",
"oX c #856E69",
"OX c #9E6D66",
"+X c #83746B",
"@X c #80796F",
"#X c #997865",
"$X c #857573",
"%X c #837B74",
"&X c #8B7B76",
"*X c #8A7D7C",
"=X c #897776",
"-X c #A67867",
";X c #BB905D",
":X c #80826D",
">X c #89857A",
",X c #92837A",
"<X c #BE9575",
"1X c #D18659",
"2X c #C88D67",
"3X c #DC8C68",
"4X c #C4976A",
"5X c #DA966A",
"6X c #C99674",
"7X c #D89775",
"8X c #CB8C7A",
"9X c #E5946D",
"0X c #D4A279",
"qX c #CAA578",
"wX c #927F81",
"eX c #8D8382",
"rX c #948686",
"tX c #D99988",
"yX c #CEA589",
"uX c #FFCCA6",
"iX c #FFCDB3",
"pX c #FBCCBC",
"aX c #FFD4B5",
"sX c #FED9BE",
"dX c #EBD0BB",
"fX c #EBD7C4",
"gX c #FCDAC6",
"hX c #F9D9CA",
"jX c #FCD8D7",
"kX c #F0CACA",
"lX c #FEE1CB",
"zX c #FFE7D3",
"xX c #EDE2CE",
"cX c #EEE0E0",
/* pixels */
"K.t.v.h.J ' t.K ' X.X.+.6.t.t.+.+.X.@.' ' X.X.t.t.l.+.X.+.+.j.+.Q...' X...+.X.t.t.6.+.t.+.X.j.t.H.X.' X.+.+.t.t.t.=.t.t.",
"' X.h.H.@.X.t.X.X.v.t.t.v.+.t.Q.t.+.t.6.t.h.+.+.l.+.t.t.U K X.t.H.t.6.t.t.X.+.+.j.t.+.t.6.X.t.t.t.X.X.t.*.@.X.' +.@.X.O.",
"L ..' 6.t.+.+.' W.K.t.t.R.,XQ.V t.+.t.t.+.+.+.j.t.' t.j.v.t.U +.' t.X.t.j.+.+.' ' @.z.n.+.K ' ' ' ' =.t.+.+.@.O.p.k.t.*.",
"+.X.X.X.t.n.l.6.t.X.t.v.t.v.%XL.+.+.j.h.6.+.+.j.+.6.' ' v.H.' ' ' 6.X.6.H.v.t.X.' +.6.t.t.t.+.J O.+.t.t.X.+.t.+.t.b.v.k.",
"j.' v.l.+.j.+.@.l.j.+.t.h.6.t.v.t.t.n.L.K.z.X.' ' j.t.@.t.t.t...+.t.t.+.h.z.+.+.t.j.t...t.R.L.h.t.t.t.+.' @.t.X.X.j.H.H.",
"H.K t.j.+.+.' +.X.h.j.z.n.B.H.t.t.t.n.v.j.t.' K X.+.l.Q.6.+.J.X.t.t.z.6.+.+.' t.6.H.L.6.+.v.H.W.t.t.t.+.X.+.t.O.+.j.L.T.",
"j.X.' +.t.t.l.v.%Xj.t.J.j.@.h.t.+.t.j.@.X.X.' ' 6.' ..@.' +.j.6.t.6.h.z.t.6.t.n.h.j.j.@.t.z.t.j.@.O.X.X.O.=.t.=.=.t.t.j.",
"X.W.6.X.+.' t.+.+.L.j.+.t.t.+.t.t.t.t.@.t.v.6.' ' t.+.U t.j.K +.t.X.' v.v.6.z.h.t.t.t.t.t.t.+.W.+.[ O.X.X.+.e.e.t.+.X.@.",
"+.' +.t.t.6...6.h.L.j.' J...h.K.t.t.n.+.B.!.H.+.' t.t.' ..B.X.X.t.t.K t.L.%XR.+.+.+.X.' t.t.X.v.v.+.O.k.j.=.O.' X.t.=.+.",
"X.' X.X.+.t.+.t.L.v.j.v.t.h.v.t.K +.K.t.t.t.j.l.K 6.@.t...+.' X.t.t.' t.h.H.j.+.' t.z.+.' 6.t.+.t.*.+.t.p.=.+.t.X.t.=.+.",
"t.t.t.' ' X.....X.X.X.+.t.v.j.B.+.+.t.+.t.t.@.+.@.t.' 6...' @.+.X.+.+.+...@.X.+.' ' n.z.X.j.H.@.X.t.=.*.t.+.@.p.+.t.+.X.",
"t.t.j.+.t.t.@.6.t.X.t.' j.t.t.L.6.+.6.+.+.+.+.t.l.6.' @.X.' t.+.X.' @.+.X.t.+.j.h.K X.j.t.h.j.t.' t.@.' =.+.' =.X.=.+.+.",
"t.X.t.X.t.X.+.t.L.U t.t.t.t.j.t.' ..+.j.l.t.+.X.+.X.j.t.X.X.X.+.6.' X...+.t.+.t.W.t.6.+.6.j.t.+.' +.' ' t.t.X.O.+.t.t.t.",
"z.+.t.X.t.' +.t.t.' J t.t.K.t.6.!.W.t.+.X.6.h.t.+.X.j.+.+.t.X.X.v.+.+.X.t.6.6.t.@.H.J.+.t.J.h.X.X.X.' ' t.j.+.X.t.t.=.=.",
"v.6.z.+.z.t.j.z.+.K.' X.j.T.X.+.+.Q.Q.W.t.+.X.' t.+.+.' t.t.t.X.H.j.t.t.j.t.H.R.' +.j.@.@.h.t.+.t.+.O.X.=.=.X.' X.@.+.t.",
"t.@.v.' t.' ' K X.H.t.' X.t.l.' L t.O.@.O.t.t.' ..=.@.@.z.O.=.X.*.@...X.6.' L.%X^.#.+.y.4.' ..z.z.t.+.+.' L K J X.+.+.t.",
"*.t.e.e.*.X.X.' ' L +.X.X.@Xl.+.) f.k.k.P.p.O.*.O.:.:.| :.i.O.=.=.i.+.X.3.y.' ..F.k.4.5.9.7.O. .t.t.j.t.t.X.6.' U 6.T.t.",
"=.*.O.p.p.+.+.X.' t.n.t.X.W.G.e.O.=.=.t.S.e.[ *.i.) | f.k.#.) O.&.[ t.z.7.Y I ) | :.e.N.V.+Xf. .=.+.j.z.H.6.j.z.X.X.l.h.",
"O.O.O.j.P.z.j.e.t.O.O.t.X.{ 4.z.] X.{ 4.l.y.X.4.@.O.@...' M.h.P ..#.=.=.+.X.t.@.k.F.&.u.%.Y.=.O.@.X.t.N.W.z.t.6.j.' U K ",
"P +.+.t.G.I.H.@.@.=.O.@.O.e.y.y.' +.+.4.j.y.+.X.6.+.6.o.X.g.6.U +.=.&.F.E.i.....' *.$.-.%.A.t.@.l.t.z.v.l.v.v.t.v.t.t.K ",
"' =.@.+.t.j.j.X.' =.*.t.e.b.p.e.X.=.@.o.o.o.o.U X.y.y.5.5.3.Y X.t.i.&.-.e.S.J.j.y.t.i.-.i.*.x.V.X.' j.N.+.e.p.p.*.S.%XS.",
"@.@.X.6.4.X.t.l.O.@.#.i.=.t.{ p.+.@.#...T o.#...4.s.s.a.r.r.4.B.t.K d.5.} 4.R.M.5.,.s.,.,.k k z I.X.X.+.[ e.&.i.&.&.S.i.",
"@.+.X.6.4.X.j.D.=.k.k.O.[ b.[ } ,.] U ....#.@.#.S.{ %.Z.Z.-.:.!.V.R <X6XyXq.3.7.r.<.2.Z Z c N N k ] +.+.S.e.# o Z.$.&.[ ",
"' @.+.+.+.+.t.t.=.| O.=.p.e.> : a.} I X.@.#.O.O.[ } a.w.%.i.=.U ^ / 6X`.2X|.~ 7.g B m m n B N c k &X$X+.p.i.+ @ u.&.i.&.",
"@.+.X.t.t.' X.+.[ =.O.i.e.*.> : , , _ [ ' ..' 4.r.r.<.<.<.9.Q q.Q W 7X).W ! 8.l M m G G m B N v &X+X$X,X*.# @ @ $.&.&.;.",
"h.t.X.+.+.X.6.=.@.=.) i.p.G.f ; ; % s 5.0.~ C.q.9.h Z j j x S x S q 2 F r S x l v n m m n n n v =X+X,X$XrX  + o -.;.&.*.",
"+.6.X.X.+.+.t.+.@.=.b.{ e.,.% s 4 |.t 6X4X0X|.|.pXOXOXG H A D A i i u i u n M g M M n n v Z 2.d.>.s.p.&XcX*X@ @ $.&.[ [ ",
"' X.] +.t.t.t.X.l.J e.i.` C ; 0 2 ].7Xe 5X1X5X].2 r 7 j 3 2 7 8 3 i u i i G y B M N N b p = $ * } y.G.U.p.o X . O.*.[ *.",
"t.t.' X.+.+.t.t.' !.l.&Xs.Y M 4 5 F tXw e 9X5X/.aXiXgXF ].[.(._.}.{.6 3 5 j j B c v b ( b b f : V & ,.G.e.{ e.e.i.=.O.@.",
"v.t.X.+.+.' +.+.K j.y.N.f Z kXy 5 F 8Xw 9X9X/.[.uXsXW W ]./.'.'./.).}.).{.H A j N c p - p p - : = f > { p.*.X.+.z.t...O.",
"*.e.*.e.*.O.+.O.' { t.I l h jX0 1 r 7X3X1X'.`.uXaXW #X-XXXw _._.[.(.(.[.[.}.6 j y = y a a a - = = f U.,.e.' +.L z.h.@.h.",
"' t.=.+.*.t.j.=.t.' 4.r.l g jXhXq 1 w }.]./.[.aXW sXgXgXOXD F w w e e e 3X7X8X1 9 ; y y y y : : : =XwXe.` i.t.+.=.@.@.n.",
"[ t.t.O.k.n.T.t.6.j.t.] l l s jX0 4 S q tX8X! .X! gXgXgX X#X.Xq r iX.XaX2X7X6X<XQ >.oXy.y.5.*.Z.=XeX*X*.[ t.O.t.=.t.k.t.",
"t.+.h.l.k.O.#.t.j.' +.4.f ; Z jXkX0 4 0 x 0 9.8.q.gXhXdXzX#X XlXgXlX-XaX0X4X;XqXq.I ' ..6.h.' *.e.^.%Xb.p.. O =.t.t.+.X.",
"t.' @.@.=.@...' t.t.l.4.] >.* $ 4 1.d 9 9 d 9 1.8.9.0.zXhXfX#XhXfXdX#X! W qX4XE Y ] +.=.+.6.` i.{ eX%X%X. X . t.k.=.@.t.",
"v.' t.@.k.E.k.=.+.t.N.y.y.5.>.>.d.oXC $ s $ s >.5.y.V.V.3.3.5.fXxX,X3.q./ / E ^ ] p.k.O.' t.e.G.p.X X X X X O b.t.+.t.H.",
"N.' j.n.n.Q.n.J.J.X.K ' I.4.] I ,.>.4.e.y.; ; y.5.I y.t.y.+XN.+.h.h.6.X.R ^ ~ 0.` i.F.-.=.4.e.i.i.. X # . p.t.t.j.*.+.k.",
"+.' t.l.h.!.E.l.l.l.@.K l.t.t.+.} +.*.{ { p.t.%XW.+.i.t.p.G.W.t.#.k.=.@.3.3.7.y.[ $.A.i.k.' +.+.[ i.*.[ *.t.*.p.=.' ' O.",
"X.+.t.h.@.%X>Xn.@.t.l.t.K.j.t.X.P @.k.P k.=.b.H.D.@.' =.@.t.P.T.k.F.=.+.@.t.j.' Y.&._ &.O.+.j.t.' @.k.p.e.*.e.) X.' ' +.",
"+.X.+.v.' t.Q.!.n.z.T.t.k.H.n.' =.O.' =.) t.S.@.=.e.=.*.=.=.=.=.:.| k.t.@.' *.O.&.;.S.Y.) ..j.j.+.' *.O.< e.t.t.P.t.X.' ",
"t.4.X.t.@...@.h.h.l.z.O.O.h.+.+...#...#.=.O.=.@.k.n.H.p.e.p.p.P.=.i.=.+.t.+.*.b.[ _ i.S.@...6.U t.t.' Q.H.J t.b.t.t.t.+.",
"+.t.+.4.+.X.t.t.+.@.O.#.=.#.#.=.+.=...#.=...+.O.h.T.W.+.) @.b.!.S.t.B.L.i.e.b.e.S.O.[ @.O.+.o.o.' +.=.W.H.' t.t.' O.X.' ",
"X.t.+.+.X.+.t.@.@.t.' #.h.O.=.=.h.M.t.t.h.6.t.t.l.L.R.t.X.X.+.G.p.+.6.y.] *.i.[ t.@.@.@.=.@.#...L ' X.=.+.X.t.X.t.t.t.t.",
"] +.X.+.X.X.6.+.t.l.@.O.#.+.=.@.+.@.+.+.+.X.+.t.v.t.t.z.H.j.X.t.I.I.4.U +.i.i.i...M.z.+.[ @.h.m.' ' +.+.=.j.t.' X.+.X.X.",
"+.+.] 4.+.' +.+.@.t.t.O.+.=.+.@.t.t.t.4.+.+.+.j.j.X.' t.L.T.t.t.$X$XB.X.X.O.e.z.@.B.B.@.*.*.t.T.t.+.6...' +.6.t.+.X...X.",
"t.+.X.t.t.' X.+.t.X.t.t.h.t.' +.4.+.4.] ' ' ` +.+.6.6.+.n.@Xv.+.S.z.~.B.' ) i.i.B.g.o.6.S.-.[ @.@.+.t.+.K K +.l.X.' ' ' ",
"+.+.+.t.t.+.6.+.t.t.+.t.z.j.+...i.*.e.*.i.t.O.+.X.j.D.t.J.%XD.O.e.t.~.:Xk.;.Y.D.~.M.X.' %.-.&.@.' +.l.H.t.X.+.+.t.+.X.+.",
"' +.+.4.t.t.y.6.t.j.' ' j.n.v.' +.[ *.*.b.S.@.+.+.j.z.t.T.>XT.t.' *.t.h.D.i.=.k.g.B.B.+.%.u.e.[ t.+.' +.X.X.t.+.t.+.+.t.",
"+.) @.j.+.[ @.X.t.X.' X.+.=.+.+.' ) O.X.' P @.t.t.=.@.X.+.+.t.b.' X.h.@.k.P.t.@.6.B.B.+.[ t.t.' t.' ' +.+.X.X...j...' j.",
"k.X.=.j.t.p.p.O.+.X.' ' ' O.@.t.' +.j.=.t.+.t.j.=.t.t.X.X.t.b.j.h.j.L.H.K.K.t.t.X.t.j.t.+.X.X.+.+.+.t.t.+.' ..X.l.t.t.z.",
"t.+.t.t.t.j.k.' X.+.e.t.+.[ ' X.' t.t.*.j.t.t.D.t.v.v.=.@.t.b.j.j.j.n.v.v.t.+.t.v.t.t.t.t.t.+.+.+.+.t.t.+.X.+.+.t.t.6.+.",
"X.+.t.t.@.+.=.X.*.t.j.v.k.+.O.[ X.' ' ' t.' @.L.H.H.v.k.t.=.e.k.h.t.t.t.j.h.t.v.T.v.6.X.t.j.j.t.+.X.X.+.+.t.t.+.t.t.h.j.",
"X.*.p.t.+.X.+.=.t.t.t.t.t.+.X.X.e.+.X.X.j.+.t.!.!.W.H.j.t.t.t.t.t.t.6.6.j.v.B.B.j.t.+.' ' +.j.K.@.X.X.+.@.h.t.X.X.X.t.z.",
"t.=.+.t.t.t.t.+.=.+.+.t.t.+.' ) @.t.t.[ p.t.j.z.L.!.L.e.+.t.p.O.+.h.t.t.v.z.j.t.B.t.X.+.+.' X.t.+.X.6.t.@.+.+.X.t.@.t.j.",
"t.t.X.' t.j.e.X.O.X.+.k.v.t.' J K ' O.) X.X.@.' t.v.v.+.X.t.p.@.t.z.h.n.J.j.t.@.L.t.X.6.t.+.' ' +.X.@.t.+.X.+.@.' ..X.X.",
"X.t.O.) X.j.t.O.' ' O.t.v.z.t.X.+.X.=.+.t.@.+.' ' X.t.+.@.+.t.t.t.t.6.v.v.+.+.+.+.+.@.+.t.t.t.+.@.' ' +.X.X.t.j.' @.6...",
"t.t.' K X.t.t.t.+.X.O.+.b.b.t.t.=.t.X.t.+.+.+.t.' X.' j.t.' +.v.+.n...' +.t.T.H.K U z...X.+.X.t.+.t.' ' j.+.t.j.t.t.' X.",
"t.p.+.' @.t.t.t.+.O.' @.b.z.t.=.@.+.X.t.+.t.=.t.@.' ) t.j.j.X.t.v.L.t.' +.t.L.Q.+.X.n.+.+.X...t.' v.n.X.@.@.h.X.+.t.6.l.",
"t.k.=.' X.t.t.t.=.+.' +.b.z.t.+.' ' ' *.X.@.[ +.p.' ' X.t.L.X.+.t.j.j.6.6.t.t.H.t.+.j.+.+.+.+.j.U ..6.@.+.K X.' ..X.X.t.",
"=.t.t.' O.+.+.+.t.t.X.t.b.j.=.+.+.X.@.t.=.t.[ +.z.t.' ' @.v.=.t.' ' t.t.t.t.' h.t...+.+.+.+.+.H.j.K U j.j.K +.t.h.+.X.+."
};
