/* XPM */
static char *_6d329da1cc248edcede90d819ddcc0akDGwZ2hcaDDsEpJM[] = {
/* columns rows colors chars-per-pixel */
"60 60 235 2 ",
"   c #0D0305",
".  c #140A0D",
"X  c #13070E",
"o  c #150C13",
"O  c #170B13",
"+  c #1A1014",
"@  c #1A121F",
"#  c #130B10",
"$  c #341716",
"%  c #2D1713",
"&  c #3A231D",
"*  c #3D1D2B",
"=  c #371D25",
"-  c #221821",
";  c #3C2223",
":  c #3C222B",
">  c #3E2B2B",
",  c #362526",
"<  c #3B343A",
"1  c #4A1A0D",
"2  c #58170D",
"3  c #471C1B",
"4  c #4B1C1D",
"5  c #4C1B12",
"6  c #561B18",
"7  c #631B14",
"8  c #50210D",
"9  c #4D231A",
"0  c #46241C",
"q  c #51221E",
"w  c #5B2419",
"e  c #6A260C",
"r  c #752902",
"t  c #762605",
"y  c #652817",
"u  c #742B19",
"i  c #431B2D",
"p  c #461825",
"a  c #442424",
"s  c #45212C",
"d  c #4B2B2B",
"f  c #482729",
"g  c #542223",
"h  c #58282B",
"j  c #49302A",
"k  c #563827",
"l  c #452332",
"z  c #4C2C33",
"x  c #4A2734",
"c  c #542332",
"v  c #5B2634",
"b  c #522C34",
"n  c #542B3A",
"m  c #5C2C39",
"M  c #4B3639",
"N  c #53343B",
"B  c #5A3738",
"V  c #662D26",
"C  c #693528",
"Z  c #7E3B20",
"A  c #653836",
"S  c #6A3138",
"D  c #4C453C",
"F  c #4F493E",
"G  c #524B3E",
"H  c #5C4C3B",
"J  c #57453B",
"K  c #5C523D",
"L  c #73442C",
"P  c #644D3D",
"I  c #664638",
"U  c #754A38",
"Y  c #6A543B",
"T  c #79533B",
"R  c #6B4828",
"E  c #5D3647",
"W  c #523548",
"Q  c #642D40",
"!  c #4E4B43",
"~  c #4D4E4A",
"^  c #494848",
"/  c #564645",
"(  c #544D44",
")  c #5A4D44",
"_  c #554D4B",
"`  c #5A4D49",
"'  c #594743",
"]  c #4C534C",
"[  c #4D5047",
"{  c #565046",
"}  c #595246",
"|  c #56524A",
" . c #5C544B",
".. c #55594D",
"X. c #5E584E",
"o. c #5B5845",
"O. c #554E52",
"+. c #5A4F51",
"@. c #4F5853",
"#. c #485354",
"$. c #545451",
"%. c #5C5552",
"&. c #5E5A52",
"*. c #5C565B",
"=. c #545E5B",
"-. c #5B5C59",
";. c #565756",
":. c #4D4552",
">. c #644D4B",
",. c #654844",
"<. c #645445",
"1. c #6A5544",
"2. c #62554C",
"3. c #6B554A",
"4. c #61594E",
"5. c #6B5B4C",
"6. c #685A44",
"7. c #785648",
"8. c #635552",
"9. c #6B5553",
"0. c #635C53",
"q. c #6A5C54",
"w. c #625659",
"e. c #645D5A",
"r. c #6B5E5D",
"t. c #725953",
"y. c #704A4B",
"u. c #5C625C",
"i. c #57605A",
"p. c #68634F",
"a. c #666056",
"s. c #696156",
"d. c #666259",
"f. c #6B645A",
"g. c #69655A",
"h. c #6C655B",
"j. c #6B645C",
"k. c #6D665D",
"l. c #6B635A",
"z. c #6F685E",
"x. c #6E685E",
"c. c #6D6954",
"v. c #72655C",
"b. c #71695F",
"n. c #7D6C5D",
"m. c #776755",
"M. c #7D654D",
"N. c #665C62",
"B. c #566160",
"V. c #5B6766",
"C. c #6C6462",
"Z. c #6D6962",
"A. c #686869",
"S. c #796461",
"D. c #716A61",
"F. c #736C62",
"G. c #746D63",
"H. c #756E65",
"J. c #736C62",
"K. c #7A6C64",
"L. c #736D6A",
"P. c #766768",
"I. c #62716E",
"U. c #777066",
"Y. c #787167",
"T. c #7C7266",
"R. c #76726A",
"E. c #7A736A",
"W. c #7F786E",
"Q. c #7B6873",
"!. c #7A7572",
"~. c #812D13",
"^. c #833B1C",
"/. c #913C14",
"(. c #943818",
"). c #883C2A",
"_. c #933C21",
"`. c #8A401D",
"'. c #86482A",
"]. c #98482A",
"[. c #874936",
"{. c #984834",
"}. c #865336",
"|. c #995336",
" X c #A14524",
".X c #835947",
"XX c #815A55",
"oX c #896756",
"OX c #886C57",
"+X c #A96C56",
"@X c #B26D50",
"#X c #886765",
"$X c #8C766D",
"%X c #80796F",
"&X c #82746A",
"*X c #847675",
"=X c #837B73",
"-X c #887979",
";X c #967978",
":X c #9D6D63",
">X c #A67A66",
",X c #B17761",
"<X c #8B847A",
"1X c #8A857C",
"2X c #908275",
"3X c #BE8B60",
"4X c #B19075",
"5X c #D68E5C",
"6X c #D98D67",
"7X c #D89569",
"8X c #CF8F74",
"9X c #D48E72",
"0X c #C59679",
"qX c #D29271",
"wX c #D49B76",
"eX c #CA9469",
"rX c #E4976C",
"tX c #CBA076",
"yX c #8A7F83",
"uX c #8C8082",
"iX c #C89B80",
"pX c #C8A583",
"aX c #FFCBA6",
"sX c #FDCDB4",
"dX c #F9CEBA",
"fX c #FED4BC",
"gX c #FFD8B6",
"hX c #FDDBCB",
"jX c #FAD8C6",
"kX c #FAD8D7",
"lX c #EFCFCA",
"zX c #FEE1CC",
"xX c #FDE2D2",
"cX c #F3E1D7",
"vX c #F1E8EB",
/* pixels */
" . .} k. .X.F a.a.G G h.Y. .X.( 0.}  .0.l.} 0. .4. .D } s.} k.} ! | &.k. .( 0.0.l. .( 0. .0.0.l.l. .X.0.0. . . .} 4.0.0.",
"z.{ (  .}  .}  . .0.} (  .( X. .( 0.} a.l.a. . .0.k.f.4. .( D.s.( ( } 0.} _  .(  .( ( } } 0.d.k. .( { X.X. . .{ (  .0.a.",
"k.( 0.} X.} 0. .} D.s.( 0. . . . .D.(  .E.W.0.4.( 0.Y.f.X.} s.a. .( (  .&.0. . .%.}  . .%.0.j.l. .{  .0.0.s.0. .( } 0.0.",
" .} h.4.k.0.0.X.( }  .} s.} ( ( X.0.( F H.k.0.X.( ( l.l.l.4.} } 0.F (  .0.0. .d.0.%.d. .0.0.k.e. .} { } X.0.0.( F {  .4.",
"(  . .} k.l.(  .0.(  . .0. .0.l.}  . . .0.( 0.f.G. .0. .0.0.} ( 0.}  .| | } (  . .} 0.(  . .k.l.X.} ( ( } 0.0.{ ( }  . .",
" .0.{ (  .0.G 0.4.(  .( F F  .X. . .4.H.0.4.f.z.U.s.k.}  .l.0.} &.Z.D. .}  .} } } | } ! F ( d.l.0.X. .}  .0.s.0.}  .4.X.",
"l.0. . .(  .} s.0. .0. .0. .{ }  .} { z.0.f.h.0.0.0.k. .X.0.s.X.0.E.E.D.k.d.0.0. . . .} F ( &.e.X. . . . . .0. .4.0.0. .",
"U.(  .0. .0.a.} X.( ( ( H.l.(  .}  .0.0.D.f.H.l.0. .0.0.X.{ 0.0.d.H.J.=X=X0.0.d.|  . .0.( }  .0.4.X.0.a.4. .X. .0.0.4.} ",
"0.4.s.0. .0.0.0.} (  . .0.0.l.0.( a.s.W.F.0.X.a.0.0.0.0.l.l. .0.d.D.D.d.H.&.( | _ } ( ( (  .0.0.H.f.0. .}  . .X.X.0. .0.",
"0. .f.l. .} } } k. .4.X. . .0.4.h.f.0.0.0.} 0.F.k.4.h.D.0.0.0.( 0.k.l.j.k.0.0.D.&.0.0. .( | | _ 0. .X. . .0.0.f.0.0.} 0.",
"l.} 0.l.} ( ( ( k. . .0.( }  .} 0.0.4.( 0.X.F.Y.D.G.l.0.a.0.X.X.| 0. .l.0.0.( 0.%.0. .} }  .} ( { ( } }  .0.X.0.l.0. .0.",
"D.(  .0. . . .}  .( { 0.(  . .( 4.D.D.X.0.0.f.0. .h.} ( h.f. . .} 0. .0.0.0.( (  .| ( (  .d.0. .} {  . . . .}  .0.} ( ( ",
"f.( } 0.X. . . . . . .4.( 0.0.( } k.F.k.0.s.0.l.b.0.{ {  .G.=Xz.k.k.l.} &.0.l.e. . .| (  .d.j.l.}  .0.0.0.0.4.0.0.} ( ( ",
" .( X.0.0.} ( X.0.a.X.} ( X.4.} (  .l.Y.k.f.X.H.=XE.0. . .F.1XY.l.j.Z.| | ( 0.l.} 0.0. ._  .l.Z.} } 0.0.X.0. .0.0.X.0. .",
"( (  .X.0. .G  .0.0. .} 0. .}  .X.0.k.D.k.0.(  .4.E.G.k.s.l.G.4. . .0.0.} ( ( | ( &.0. .( } 0.l. . .0. .} } (  . .} X. .",
" .( G ( s.a.G } } }  .0.Y.0.} 0.a.a.b.} 0.a. .( 0.D.!.E.( 0.1XD.0.( ) k.0.&.{ }  .0.0.&. . . . .4.4.a.4.} } } 0.0.} X.} ",
"{ X.f.G } 4. . .4. .F ( D.0.-.| G c.f.X.a.4.G ( _ w.L.*Xh.) j.D.D.f.9.9.0. .o. .2. .X. . .2.}  .(  .F.l.( } } }  .4.4. .",
"j.( 0.X.} 0.s. .4. . .( 0.&.e.| o.o.0. .G p.c.G e.w.%.j.0.} %.%. .K.&Xv.a. . .s.l.0.a.d.q.q.8.d.4.(  .X.4.0. .X.( { }  .",
" .{ (  . .2.} b.h.}  .( (  .e. .| ~ e.C. .o.5.o.E.C.0.Z.R.d.$.~ } Y.Y.s.0. .{ X.&.| X. .8.8.}  . .{  .4.0. .{ 0.X.0.0. .",
"! 0.X.l.l. .F k.W. .2. .X.0.{ ( R.-.^ _ 0.o.K 4.0.w.8.j.U.g.&.&.0.J.z.&. .0.%.| %. .%.}  .0. .8.} l.z.l.a.4.(  . .X.4.0.",
"X. .X.F.0.0.} D %.` } } a.f.F ! F.C.O._ 0.0.o. .%.w.*.&.p.X. .0. . .a.u.%.0.e.| $.%.8.` ..d.h.f.0.H.D.a.G.E.f.( 0.0. .} ",
"{ { ( } ( %.e._ %.r.&.(  .s.{ o.)  .N.C.0. .X.&.C.A.A.d.a.c.5.4. .F ..Z.P.P.C.%._  .8./ ~ d.k.v. .z.s.0.G.<X%X .0.4. . .",
"} X.{ ( %.w.C.+.%.w._ &. .4.o.o.5.<.' ` 0.0.&.-.$.*.C.0.p.OXm.5.s. ...L.*Xr.%.e. .%.8.` _ &.q.v.G 4.0.s.k.E.=Xk.s.4.} { ",
"s.( 0.k.j.w.%.. O   + } 0.o.4.<.P n.2.M s.c.G  .%.*.Z.2.K m.m.<.2.0.} 0.9.> , 8.8.>.8.>.( ( } s.( }  .D.D.k.E.z.l.0.0.0.",
"T.} 0.0.j.. + . +   - _ E. .4.} H 5.q.<.6.H Y 6.t.9.$XlXxXY 3.5.s.s.q.q.J & d ; a B S.S.' M 9.q.0.D.} 0.4.l.D.0.0.0.( U.",
"}  .l. .8.. . . *XyX*X0.` 0.2.} 4.) ) 1.k pX4XR U :XhXjXzXOXkXcXcX1.t.I 3.0 $ 3 3 0 >.% f f / 8.4.0.0.0.{  . .0.0.0.( 0.",
"0.(  .Z.e.  + e.N.uX*X .h.D 2.v...! 2.H 0XtXeX7XgX+XdXjXdX2X#XkXlXhXhXoXI I C C 5 9 0 kXkXb > ,  .} a.0. .0.} k.0.a.0.0.",
"2.f.0.} 0.8.%.` 8.-X*X;X9.>.r.r.*.!./ 3.0X3X7X5XaX@XsXy C >X;X;XxXzXsXL >XL iX8Xy V 1 9 kXd N > 2.{ 0.0.l.G.a.k.( } X.} ",
"H.8.` 0.0.r.%._ 8.-X-X, : x = = < : : $ 8 qX7XrXt ~.t e e y V :XfXsXfX}.sX'.|.Z '.y 5 5 kXlXz f 2. .} } 0.f.0.} 0.4.0.( ",
"l. .l.k.F (  .2.` ;X> : : * l l * : s h w y '.`.|.~.].].^.|.u +X,X+X}.gXaX^.`.7XqX8Xy 1 q kXE N  . . .( }  . .( 0.} 4.( ",
" .( 0.D.0.0.) ` r.% , l = i i l x p p v 6 V [.).).{.)._. X/.(.].^.'.gXaX]./.6X7Xr 9Xu 6 4 kXb * v.4.a.( }  .}  .4.} s.f.",
"} } 0.0.%.%.` h.r.r.$ = l l * i p v Q p v h 6 6 6 7 [.)._.(. X_.'.jXsXgX`.rX6Xr r 6X).2 g s E Q.-X0.D.( X.a.( 4. .(  .X.",
"X.| %._ o O + %.E.8.9.>.; s l i c m v c m b n p i p g 6 2 2 7 2 4 g 9 1 '.wX6X7Xr 6X).y 3 : W :.%.0. . .0.X.X.X. . . . .",
"{ { | *.X @ Q.vX*Xv.q.,.9.y.E n m c c c m c n x p c 4 4 V S V V h ;X#XxX.X}.wXqXqX'.[.1 p : N.*.%.4. . .0.X. . .( ( } } ",
" .( %.O.- O o -X*X*X$X$XN z i W n b B h g h V y V C w C h q g A A q B 1.7.M.Y T 7.1 9 3 a ; P.C.}  .} {  . .} } 0.0.0.l.",
"0. .r.^ X X o r.*X$X$X$Xf N x x W z z 4 C [.[.'.'.8X[.L .XXX,.B y.7.7.H 2.} 4.G J >.% f & ; q.}  .} } (  . .}  . . .} } ",
"2.( ` r.X + P.r.2.&X$XB d b m n M M z k U }.}.qX'.eX}.T I P K.>.I U P )  .;.] u.$.O.%./ ; & <.s. . .4. .0.s. . .0.4. .} ",
"2.2.2.r.. . w.%.9.3.2.j f f f l M %.2.3.7.T }.0X0XpXR .X$X) %.q.m.P <.0.] ^ I.#.#.< $._ } 3.5.}  .} 0.0.l.k.}  .} }  . .",
"q.s. .%.e.r.%. .2.) 2.n.j d b 9. .Z. .0.n.n.5.1.H <.H v.h. .j.0.` v.0...i.u.] @.;.Z.%. .%.%.&. .0.} 0. .0.k.} 0. . . .X.",
"a.<X0. .e.0.0.8.q.s.2.3.v.S.>.8.3.0.( a.a.f.d...d.X.-.&...| | 0.e.-.d.~ ..| | &. .} 8. .Z.%.d.d.j. .0.(  .h.X.f.0.0. .} ",
"G 4.0.j.-.C.j.j.b.h.q.2.8.9.9.3.) } 4.{ ~ u.I.V.B.i.=.@...a.a.| $.-.$.....o.s.c.2.) 2.G &.%.u.~  .( 0.} } U.z.a.l.4.( G ",
"! ( ! 0.d.d.d.E.z. .{  .0.0.9.2.2.H 0.h...[ =.=.V.B.@.^ ! X.0. .$.-.;.-. .G <.s.<.5.) ( j.&.~ %. . . .0.} f.k.E. . .}  .",
"u.d.X...&.d.0.f.F.d.0. .( l.U.s.v.<.2.4.G ( X...d.&...| (  .4. .0. .(  .0. .2.q.s.q.` ) 0.E.Z.( z.z.( 0.(  . .a.0.4.X.X.",
"a.x.X.! { &.X.X.a.a.j.X.D  .z.X.2.5.s.s.} G 2.s.} (  .4. . .0.0.(  .4.4.} G q.K.0.0.q.( G D.&X .)  .D F F ( ( 4.0.0.0.0.",
"0.X.{ ! ( D D  . .! 0.Z. .( ..|  .2.4.T.2Xm.H 5.<.} 2.0. .) 0.l. .4.( (  .2.0. .0.e.0.F 4.2.q.0.} 0.H.( ( ( F  .4.0.0.0.",
"0.&.0.{ ( F }  .%.!  .d.0.0.d.0.d.j.} 4.&Xb.} 2.<.2.s.h.0. .%.0.( 0.q.4.} } 0.%.C.Z.R.&.0. .v.2.F ( H.{ 0.s.0.k.4.0.a.l.",
"%.%.l. .} 4.J.s.` | _ ( ( d.z.0.%.Z.Z. .( | 0.f. . .0.j.e.%.%...&.&. . .0.q.0.} 0.d.1XR.~ | !.d. .F X.} 0. .} {  .X.0.f.",
"C.} 0.0.( F 0. .( _ }  . .0.a.d.-.-.Z.L.j.d.0.{ &.| _ | _ ..-.;.d.-. . . . .0.0.f.{ ! $.-.d.e.-.d.( } b.l.(  .a. . . . .",
"&. . .}  .} }  . .} 0.F 0.D. .0.0.X.D  .G.0.| &. . . .|  .X.( | { X.0.k. . .} 0. .a.X.&.E.0.0.d.0.( { 0.0. . .0. .X.0.s.",
"( 0. . .0.0. .e. .| l._ 0.Z.d. .s.l. .} } ( } ( } ( 0. .0.} { ( } } (  .X.0.4. .0.l.( ( F.h.s.X.}  .X.} ( }  .G { X.a.s.",
" .l.&.(  . . .Z.0.( 0.0.0. .0.( } 0.0.} ( l.W.z.} (  .0.} } ( ( 0.4. . .l.k.0.{ 0.f.} ( k.l.l.l.z.0.f.G.l. . .0.} ( ( ( ",
"&.0. .( ( |  .e.k.} } Z.D.| 0.0.( X.} { X.G.%Xz.a.( 0.0. . .0.4.0.X.4.( 0.l.E.H.0.s.0.0.h.0.4.f.X.l.D.l. .X.4.} 0. .} } ",
" ._ 0.0. .0.0.(  .| ! 0.R.} 0.j. .s. .X.z.k.s.a.h.F l.( 0.( s.} ( } 0.( }  .l.s.0.a.0.X.0.0. .4. .a.z.s. . .X.}  .0.s.s.",
"l.0.0.0. .0.0.( (  .( ( Z.0.0.0.X.D.a.l.F.0.} a.l. .X.0.} 0. .{  .X.0.{ ( ( ( (  .l.s. .} k.l.l.D.s.k.U.k.X.X.a.} } 4.a.",
"R.H.0.}  .&. .} &.d.d.&.D.G.D. .0.D.f.0.4.( { } s.D. .F.( E. .0.z.0.( F D } 0.D.s.l.l.0. .b.l.G.0.0.s.0.} X.X.( s. .} 0.",
"k.W.0.( 0.0.(  .0.} e.0.k.H.H.} 4.l.l.0.} 0.F.0. .0.4.( { 0.X.4.s.a. .0.} X.0.k.<Xl. .l.f.b.} 0.k. . .s.0. . .0.k.0. .X.",
"0.j.j.0.0.%. . .0. . .} D  .0.0. .}  .} } 0.a.b.0. .4.( ( ( h.F.( {  . .0.0.a.( 0.0.0.X.k.=XE.{ k.X.4.0. .l.b.0. .} (  .",
"%.0.0.&. . . .} d. . . .F } _ | b.0.X.( ( } X.h.0.} 0. .} ( 0.0.0. . .0.f. .0.0.0.0.4.} } k.=X=X0.l.H.D. . .0.4.0. .F ( ",
"}  . . . . .} } 0.(  .l. .0.} } l.0.0. .}  .} 4.0.} 0.f.0.{  .} a. . .0.l.(  .0.4. .0.s.0.0.0.0.0.0.l.0.}  .X.( l.0.( } ",
" . .&. . .%. . . .!  .D.l.l.%.0. .} 0.0.0.X.( } 4.( 0.G.f. . .} ( 0.0.4.0.(  .( 0.( ( 4.0.a.0.} 0.{ ( G ( 4. .D s.h.0.k."
};
